<svg xmlns="http://www.w3.org/2000/svg">
  <symbol id="icon" fill="none" viewBox="0 0 16 16"><path fill="currentColor" fill-rule="evenodd" d="M4.854 4.146a.5.5 0 1 0-.708.708L7.293 8l-3.147 3.146a.5.5 0 1 0 .708.707L8 8.707l3.146 3.146a.5.5 0 1 0 .707-.707L8.707 8l3.146-3.146a.5.5 0 1 0-.707-.708L8 7.293 4.854 4.146Z" clip-rule="evenodd"/></symbol>
  <symbol id="icon-large" fill="none" viewBox="0 0 24 24"><path fill="currentColor" fill-rule="evenodd" d="M7.354 6.646a.5.5 0 1 0-.707.708L11.293 12l-4.646 4.646a.5.5 0 1 0 .707.707L12 12.707l4.647 4.646a.5.5 0 1 0 .707-.707L12.707 12l4.647-4.646a.5.5 0 1 0-.707-.708L12 11.293 7.354 6.646Z" clip-rule="evenodd"/></symbol>
  <use href="#icon"/>
</svg>
