<svg xmlns="http://www.w3.org/2000/svg">
  <symbol id="icon" fill="none" viewBox="0 0 16 16"><path fill="currentColor" d="M8.5 6A1.5 1.5 0 0 1 10 7.5v5A1.5 1.5 0 0 1 8.5 14h-5A1.5 1.5 0 0 1 2 12.5v-5A1.5 1.5 0 0 1 3.5 6h5Zm-5 1a.5.5 0 0 0-.5.5v5a.5.5 0 0 0 .5.5h5a.5.5 0 0 0 .5-.5v-5a.5.5 0 0 0-.5-.5h-5Zm9-5A1.5 1.5 0 0 1 14 3.5v5a1.5 1.5 0 0 1-1.5 1.5H11V9h1.5a.5.5 0 0 0 .5-.5v-5a.5.5 0 0 0-.5-.5h-5a.5.5 0 0 0-.5.5V5H6V3.5A1.5 1.5 0 0 1 7.5 2h5Z"/></symbol>
  <symbol id="icon-large" fill="none" viewBox="0 0 24 24"><path fill="currentColor" fill-rule="evenodd" d="M20.5 3a.5.5 0 0 1 .5.5v11a.5.5 0 0 1-.5.5H18v1h2.5a1.5 1.5 0 0 0 1.5-1.5v-11A1.5 1.5 0 0 0 20.5 2h-11A1.5 1.5 0 0 0 8 3.5V6h1V3.5a.5.5 0 0 1 .5-.5h11Zm-6 6a.5.5 0 0 1 .5.5v11a.5.5 0 0 1-.5.5h-11a.5.5 0 0 1-.5-.5v-11a.5.5 0 0 1 .5-.5h11Zm0 13a1.5 1.5 0 0 0 1.5-1.5v-11A1.5 1.5 0 0 0 14.5 8h-11A1.5 1.5 0 0 0 2 9.5v11A1.5 1.5 0 0 0 3.5 22h11Z" clip-rule="evenodd"/></symbol>
  <use href="#icon"/>
</svg>
