<svg xmlns="http://www.w3.org/2000/svg">
  <symbol id="icon" fill="none" viewBox="0 0 16 16"><path fill="currentColor" d="M9.121 3.514a.5.5 0 0 1 .364.607l-2 8a.5.5 0 0 1-.97-.243l2-8a.501.501 0 0 1 .606-.364Zm2.025 1.632a.501.501 0 0 1 .63-.064l.077.064 2.5 2.5a.5.5 0 0 1 0 .707l-2.5 2.5a.5.5 0 1 1-.707-.707L13.293 8l-2.147-2.147-.064-.078a.5.5 0 0 1 .064-.629Zm-7 0a.5.5 0 0 1 .706.707L2.706 8l2.146 2.146.065.078a.5.5 0 0 1-.693.694l-.079-.065-2.499-2.5a.5.5 0 0 1 0-.707l2.5-2.5Z"/></symbol>
  <symbol id="icon-large" fill="none" viewBox="0 0 24 24"><path fill="currentColor" fill-rule="evenodd" d="M14.114 3.014a.5.5 0 0 1 .372.6l-4 17a.5.5 0 1 1-.972-.228l4-17a.5.5 0 0 1 .6-.372Zm3.532 4.632a.5.5 0 0 1 .707 0l4 4a.5.5 0 0 1 0 .707l-4 4a.5.5 0 1 1-.707-.707L21.293 12l-3.646-3.646a.5.5 0 0 1 0-.708Zm-11.292 0a.5.5 0 0 0-.708 0l-4 4a.5.5 0 0 0 0 .707l4 4a.5.5 0 1 0 .708-.707L2.707 12l3.647-3.646a.5.5 0 0 0 0-.708Z" clip-rule="evenodd"/></symbol>
  <use href="#icon"/>
</svg>
