<svg xmlns="http://www.w3.org/2000/svg">
  <symbol id="icon" fill="none" viewBox="0 0 16 16"><path fill="currentColor" d="M11.5 2A1.5 1.5 0 0 1 13 3.5v7c0 .653-.418 1.206-1 1.412V13h.5a.5.5 0 0 1 0 1h-8A1.5 1.5 0 0 1 3 12.5v-9A1.5 1.5 0 0 1 4.5 2h7Zm-7 10a.5.5 0 0 0-.5.5l.01.1a.5.5 0 0 0 .49.4H11v-1H4.5Zm0-9a.5.5 0 0 0-.5.5v7.587c.156-.056.324-.087.5-.087h7a.5.5 0 0 0 .5-.5v-7a.5.5 0 0 0-.5-.5h-7ZM9 7.5a.5.5 0 0 1 0 1H6a.5.5 0 0 1 0-1h3Zm1.1-2.49a.5.5 0 0 1 0 .98L10 6H6a.5.5 0 0 1 0-1h4l.1.01Z"/></symbol>
  <symbol id="icon-large" fill="none" viewBox="0 0 24 24"><path fill="currentColor" fill-rule="evenodd" d="M19 16.5v-13a.5.5 0 0 0-.5-.5h-12A1.5 1.5 0 0 0 5 4.5v13a2.49 2.49 0 0 1 1.5-.5h12a.5.5 0 0 0 .5-.5ZM4 4.5v15A2.5 2.5 0 0 0 6.5 22h13a.5.5 0 0 0 0-1H19v-3.085a1.5 1.5 0 0 0 1-1.415v-13A1.5 1.5 0 0 0 18.5 2h-12A2.5 2.5 0 0 0 4 4.5ZM6.5 21H18v-3H6.5a1.5 1.5 0 0 0 0 3Zm6.5-9.5a.5.5 0 0 0-.5-.5h-4a.5.5 0 0 0 0 1h4a.5.5 0 0 0 .5-.5Zm3-4a.5.5 0 0 0-.5-.5h-7a.5.5 0 0 0 0 1h7a.5.5 0 0 0 .5-.5Z" clip-rule="evenodd"/></symbol>
  <use href="#icon"/>
</svg>
