<svg xmlns="http://www.w3.org/2000/svg">
  <symbol id="icon" fill="none" viewBox="0 0 16 16"><path fill="currentColor" d="M13 2a.501.501 0 0 1 .424.765L9.75 8.643V13a.5.5 0 0 1-.314.464l-2.5 1A.5.5 0 0 1 6.25 14V8.643L2.577 2.765A.5.5 0 0 1 3 2h10ZM7.174 8.235a.5.5 0 0 1 .076.265v4.762l1.5-.6V8.5a.5.5 0 0 1 .077-.265L12.099 3H3.902l3.272 5.235Z"/></symbol>
  <symbol id="icon-large" fill="none" viewBox="0 0 24 24"><path fill="currentColor" d="M19 3a1 1 0 0 1 1 1v1.13c0 .358-.128.705-.361.976l-5.519 6.439a.5.5 0 0 0-.12.325v6.362a1 1 0 0 1-.445.832l-2 1.334A1 1 0 0 1 10 20.565V12.87a.5.5 0 0 0-.12-.325L4.36 6.106A1.501 1.501 0 0 1 4 5.13V4a1 1 0 0 1 1-1h14ZM5 5.13a.5.5 0 0 0 .12.325l5.519 6.439c.233.271.361.618.361.976v7.695l2-1.333V12.87c0-.358.128-.705.361-.976l5.519-6.439A.5.5 0 0 0 19 5.13V4H5v1.13Z"/></symbol>
  <use href="#icon"/>
</svg>
