<svg xmlns="http://www.w3.org/2000/svg">
  <symbol id="icon" fill="none" viewBox="0 0 16 16"><path fill="currentColor" d="M12.5 2A1.5 1.5 0 0 1 14 3.5v9a1.5 1.5 0 0 1-1.5 1.5h-9A1.5 1.5 0 0 1 2 12.5v-9A1.5 1.5 0 0 1 3.5 2h9ZM6.354 8.56a.5.5 0 0 0-.708 0L3 11.208V12.5a.5.5 0 0 0 .5.5h7.293l-4.44-4.44ZM3.5 3a.5.5 0 0 0-.5.5v6.293l1.94-1.94a1.5 1.5 0 0 1 2.12 0L12.208 13h.293a.5.5 0 0 0 .5-.5v-9a.5.5 0 0 0-.5-.5h-9ZM10 4a2 2 0 1 1 0 4 2 2 0 0 1 0-4Zm0 1a1 1 0 1 0 0 2 1 1 0 0 0 0-2Z"/></symbol>
  <symbol id="icon-large" fill="none" viewBox="0 0 24 24"><path fill="currentColor" fill-rule="evenodd" d="M20.5 5a.5.5 0 0 1 .5.5v9.293l-2.44-2.44a1.5 1.5 0 0 0-2.12 0l-1.69 1.69-4.19-4.19a1.5 1.5 0 0 0-2.12 0L3 15.294V5.5a.5.5 0 0 1 .5-.5h17Zm-2.646 8.06L21 16.207V18.5a.5.5 0 0 1-.5.5h-.793l-4.25-4.25 1.69-1.69a.5.5 0 0 1 .707 0ZM3 16.707V18.5a.5.5 0 0 0 .5.5h14.793l-8.44-8.44a.5.5 0 0 0-.707 0L3 16.707ZM20.5 20a1.5 1.5 0 0 0 1.5-1.5v-13A1.5 1.5 0 0 0 20.5 4h-17A1.5 1.5 0 0 0 2 5.5v13A1.5 1.5 0 0 0 3.5 20h17ZM16 8a1 1 0 1 1 0 2 1 1 0 0 1 0-2Zm-2 1a2 2 0 1 0 4 0 2 2 0 0 0-4 0Z" clip-rule="evenodd"/></symbol>
  <use href="#icon"/>
</svg>
