<svg xmlns="http://www.w3.org/2000/svg">
  <symbol id="icon" fill="none" viewBox="0 0 16 16"><path fill="currentColor" d="M6.107 1.798a.5.5 0 0 1 .624.622 5.5 5.5 0 0 0 6.865 6.849.5.5 0 0 1 .624.624A6.502 6.502 0 0 1 1.5 8a6.472 6.472 0 0 1 4.607-6.202Zm-.542 1.285A5.464 5.464 0 0 0 2.5 8a5.5 5.5 0 0 0 10.43 2.437 6.5 6.5 0 0 1-7.365-7.354Z"/></symbol>
  <symbol id="icon-large" fill="none" viewBox="0 0 24 24"><path fill="currentColor" fill-rule="evenodd" d="M9.116 3.472A10.15 10.15 0 0 0 9 5c0 5.523 4.477 10 10 10 .52 0 1.03-.04 1.528-.116A9 9 0 1 1 9.116 3.472Zm.531-1.19v-.004C5.26 3.337 2 7.288 2 12c0 5.523 4.477 10 10 10 4.696 0 8.635-3.237 9.71-7.601a.5.5 0 0 0-.59-.65A9 9 0 0 1 10.25 2.886a.5.5 0 0 0-.603-.605Z" clip-rule="evenodd"/></symbol>
  <use href="#icon"/>
</svg>
