<svg xmlns="http://www.w3.org/2000/svg">
  <symbol id="icon" fill="none" viewBox="0 0 16 16"><path fill="currentColor" d="M4 3.36a1.25 1.25 0 0 1 1.918-1.056l7.345 4.64a1.25 1.25 0 0 1 0 2.113l-7.345 4.64A1.25 1.25 0 0 1 4 12.64V3.36Zm1.384-.21A.25.25 0 0 0 5 3.36v9.28a.25.25 0 0 0 .384.21l7.345-4.64a.25.25 0 0 0 0-.42L5.384 3.15Z"/></symbol>
  <symbol id="icon-large" fill="none" viewBox="0 0 24 24"><path fill="currentColor" d="M4 3.748a1.5 1.5 0 0 1 2.26-1.293l14.028 8.252a1.5 1.5 0 0 1 0 2.586L6.261 21.545A1.5 1.5 0 0 1 4 20.252V3.748Zm1 16.504a.5.5 0 0 0 .754.43l14.027-8.251a.5.5 0 0 0 0-.861L5.754 3.317a.5.5 0 0 0-.754.43v16.504Z"/></symbol>
  <use href="#icon"/>
</svg>
