<svg xmlns="http://www.w3.org/2000/svg">
  <symbol id="icon" fill="none" viewBox="0 0 16 16"><path fill="currentColor" d="M12.5 2A1.5 1.5 0 0 1 14 3.5v9a1.5 1.5 0 0 1-1.5 1.5h-9A1.5 1.5 0 0 1 2 12.5v-9A1.5 1.5 0 0 1 3.5 2h9Zm-9 1a.5.5 0 0 0-.5.5v9a.5.5 0 0 0 .5.5h9a.5.5 0 0 0 .5-.5v-9a.5.5 0 0 0-.5-.5h-9Zm4.813 2.504a.5.5 0 0 1 .433.559l-.5 4a.5.5 0 0 1-.992-.126l.5-4a.5.5 0 0 1 .559-.433Zm1.333.642a.5.5 0 0 1 .63-.064l.078.064 1.5 1.5a.5.5 0 0 1 0 .708l-1.5 1.5a.5.5 0 0 1-.708-.708L10.793 8 9.646 6.854l-.064-.079a.5.5 0 0 1 .064-.629Zm-4 0a.5.5 0 1 1 .708.708L5.207 8l1.147 1.146.064.079a.5.5 0 0 1-.693.693l-.079-.064-1.5-1.5a.5.5 0 0 1 0-.708l1.5-1.5Z"/></symbol>
  <symbol id="icon-large" fill="none" viewBox="0 0 24 24"><path fill="currentColor" fill-rule="evenodd" d="M19.5 4a.5.5 0 0 1 .5.5v15a.5.5 0 0 1-.5.5h-15a.5.5 0 0 1-.5-.5v-15a.5.5 0 0 1 .5-.5h15Zm0 17a1.5 1.5 0 0 0 1.5-1.5v-15A1.5 1.5 0 0 0 19.5 3h-15A1.5 1.5 0 0 0 3 4.5v15A1.5 1.5 0 0 0 4.5 21h15ZM15.354 8.646a.5.5 0 1 0-.707.708L17.293 12l-2.646 2.646a.5.5 0 1 0 .707.707l3-3a.5.5 0 0 0 0-.707l-3-3Zm-2.829.196a.5.5 0 0 1 .95.316l-2 6a.5.5 0 0 1-.95-.316l2-6Zm-3.171-.196a.5.5 0 0 0-.708 0l-3 3a.5.5 0 0 0 0 .707l3 3a.5.5 0 1 0 .708-.707L6.707 12l2.647-2.646a.5.5 0 0 0 0-.708Z" clip-rule="evenodd"/></symbol>
  <use href="#icon"/>
</svg>
