<svg xmlns="http://www.w3.org/2000/svg">
  <symbol id="icon" fill="none" viewBox="0 0 16 16"><path fill="currentColor" d="M8.235 1.504c.234.009.465.03.69.063.665.096 1.023.647 1.07 1.147l.005.1.01.129a.997.997 0 0 0 .489.727l.121.06a.999.999 0 0 0 .87-.056l.088-.045c.426-.195 1.026-.18 1.442.252l.085.099.14.185c.319.435.586.911.79 1.42.267.666-.092 1.288-.543 1.555A.999.999 0 0 0 13 8l.009.134a1 1 0 0 0 .484.726c.451.267.81.889.543 1.555a6.494 6.494 0 0 1-.93 1.605c-.443.561-1.159.563-1.615.307a1 1 0 0 0-.87-.056l-.121.06a.998.998 0 0 0-.498.855c-.006.525-.366 1.145-1.073 1.247a6.513 6.513 0 0 1-.692.063L8 14.5c-.316 0-.627-.024-.929-.068-.708-.102-1.068-.722-1.074-1.247a.997.997 0 0 0-.386-.781L5.5 12.33a1 1 0 0 0-.991-.005c-.457.256-1.174.255-1.616-.307a6.494 6.494 0 0 1-.928-1.604c-.266-.666.092-1.288.543-1.555l.106-.072a.997.997 0 0 0 .377-.654L3 8a.998.998 0 0 0-.492-.86c-.451-.267-.81-.89-.543-1.555l.09-.215c.222-.5.505-.967.839-1.39l.085-.099c.416-.431 1.016-.447 1.442-.252l.089.045.116.056a.994.994 0 0 0 .873-.06l.112-.074a1 1 0 0 0 .386-.782l.006-.099c.046-.5.404-1.052 1.07-1.148l.228-.028A6.53 6.53 0 0 1 8 1.5l.235.004ZM8 2.5c-.267 0-.53.02-.786.057-.129.02-.216.138-.217.268a1.997 1.997 0 0 1-.998 1.712l-.12.064a1.998 1.998 0 0 1-1.86-.056c-.113-.063-.26-.048-.34.054a5.47 5.47 0 0 0-.786 1.359c-.048.12.012.255.124.32C3.605 6.628 4 7.269 4 8l-.004.137a2 2 0 0 1-.98 1.584c-.111.067-.172.2-.123.322.196.491.462.948.785 1.358a.26.26 0 0 0 .297.073l.044-.02a1.999 1.999 0 0 1 2.978 1.721c.002.13.088.25.217.269a6.2 6.2 0 0 0 .39.042L8 13.5c.133 0 .266-.005.396-.014l.388-.042a.261.261 0 0 0 .213-.22l.004-.049c.007-.64.321-1.261.883-1.638l.115-.073a1.999 1.999 0 0 1 1.981-.01c.1.056.224.051.307-.019l.033-.034a5.51 5.51 0 0 0 .626-.996l.16-.362a.26.26 0 0 0-.084-.294l-.04-.028a1.999 1.999 0 0 1-.978-1.584L11.999 8c0-.687.348-1.292.876-1.652l.107-.07a.273.273 0 0 0 .138-.275l-.014-.045a5.495 5.495 0 0 0-.786-1.359c-.08-.102-.226-.117-.34-.054a2 2 0 0 1-1.86.056l-.121-.064A2 2 0 0 1 9 2.825a.272.272 0 0 0-.17-.257l-.047-.01a5.55 5.55 0 0 0-.388-.043L8 2.5Zm0 3a2.5 2.5 0 1 1 0 5 2.5 2.5 0 0 1 0-5Zm0 1a1.5 1.5 0 1 0 0 3 1.5 1.5 0 0 0 0-3Z"/></symbol>
  <symbol id="icon-large" fill="none" viewBox="0 0 24 24"><path fill="currentColor" d="M13 2a1 1 0 0 1 .895.553l.832 1.666.846.35 1.768-.589.136-.035a1 1 0 0 1 .887.277l1.414 1.414a1 1 0 0 1 .242 1.023l-.59 1.767.35.845 1.667.834A1 1 0 0 1 22 11v2a1 1 0 0 1-.553.895l-1.667.832-.35.846.59 1.768a1 1 0 0 1-.242 1.023l-1.414 1.414a1 1 0 0 1-1.023.242l-1.768-.59-.846.35-.832 1.667A1 1 0 0 1 13 22h-2a1 1 0 0 1-.895-.553l-.834-1.667-.845-.35-1.767.59a1 1 0 0 1-1.023-.242l-1.414-1.414a1 1 0 0 1-.242-1.023l.59-1.768-.351-.846-1.666-.832A1 1 0 0 1 2 13v-2a1 1 0 0 1 .553-.895l1.666-.834.35-.845-.589-1.767a1 1 0 0 1 .242-1.023l1.414-1.414.106-.092a1 1 0 0 1 .917-.15l1.767.59.845-.351.834-1.666.072-.121A1 1 0 0 1 11 2h2Zm-3 3-1.535.636-2.122-.707-1.414 1.414.707 2.122L5 10l-2 1v2l2 1 .636 1.535-.707 2.122 1.414 1.414 2.122-.707L10 19l1 2h2l1-2 1.535-.636 2.122.707 1.414-1.414-.707-2.122L19 14l2-1v-2l-2-1-.636-1.535.707-2.122-1.414-1.414-2.122.707L14 5l-1-2h-2l-1 2Zm2 3a4 4 0 1 1 0 8 4 4 0 0 1 0-8Zm0 1a3 3 0 1 0 0 6 3 3 0 0 0 0-6Z"/></symbol>
  <use href="#icon"/>
</svg>
