<svg xmlns="http://www.w3.org/2000/svg">
  <symbol id="icon" fill="none" viewBox="0 0 16 16"><path fill="currentColor" d="M7.25 1.855a1.5 1.5 0 0 1 1.5 0l4.196 2.423a1.5 1.5 0 0 1 .75 1.299v4.846a1.5 1.5 0 0 1-.75 1.298L8.75 14.144a1.5 1.5 0 0 1-1.5 0l-4.196-2.423a1.5 1.5 0 0 1-.75-1.298V5.577a1.5 1.5 0 0 1 .75-1.299L7.25 1.855Zm1 .866a.5.5 0 0 0-.5 0L3.554 5.144a.5.5 0 0 0-.25.433v4.846a.5.5 0 0 0 .25.432l4.196 2.423a.5.5 0 0 0 .5 0l4.196-2.423a.5.5 0 0 0 .25-.432V5.577a.5.5 0 0 0-.25-.433L8.25 2.721ZM8 9.5A.75.75 0 1 1 8 11a.75.75 0 0 1 0-1.5ZM8 5a.5.5 0 0 1 .5.5V8a.5.5 0 0 1-1 0V5.5A.5.5 0 0 1 8 5Z"/></symbol>
  <symbol id="icon-large" fill="none" viewBox="0 0 24 24"><path fill="currentColor" fill-rule="evenodd" d="M20.5 7.56a.5.5 0 0 0-.24-.426l-8-4.889a.5.5 0 0 0-.52 0l-8 4.889a.5.5 0 0 0-.24.426v8.88a.5.5 0 0 0 .24.426l8 4.889a.5.5 0 0 0 .52 0l8-4.889a.5.5 0 0 0 .24-.427V7.56Zm1 8.88a1.5 1.5 0 0 1-.718 1.279l-8 4.89a1.5 1.5 0 0 1-1.564 0l-8-4.89a1.5 1.5 0 0 1-.718-1.28V7.56a1.5 1.5 0 0 1 .718-1.279l8-4.89a1.5 1.5 0 0 1 1.564 0l8 4.89a1.5 1.5 0 0 1 .718 1.28v8.878Zm-8.75-.69a.75.75 0 1 1-1.5 0 .75.75 0 0 1 1.5 0ZM11.5 8v5a.5.5 0 1 0 1 0V8a.5.5 0 0 0-1 0Z" clip-rule="evenodd"/></symbol>
  <use href="#icon"/>
</svg>
