<svg xmlns="http://www.w3.org/2000/svg">
  <symbol id="icon" fill="none" viewBox="0 0 16 16"><path fill="currentColor" d="M6.94 2.354a1.5 1.5 0 0 1 2.121 0l4.586 4.586a1.5 1.5 0 0 1 0 2.12l-4.586 4.587a1.5 1.5 0 0 1-2.121 0L2.354 9.06a1.5 1.5 0 0 1 0-2.121L6.94 2.354Zm1.414.707a.5.5 0 0 0-.707 0L3.061 7.647a.5.5 0 0 0 0 .707l4.586 4.586a.5.5 0 0 0 .707 0l4.586-4.586a.5.5 0 0 0 0-.707L8.354 3.06ZM8 9.5A.75.75 0 1 1 8 11a.75.75 0 0 1 0-1.5ZM8 5a.5.5 0 0 1 .5.5V8a.5.5 0 0 1-1 0V5.5A.5.5 0 0 1 8 5Z"/></symbol>
  <symbol id="icon-large" fill="none" viewBox="0 0 24 24"><path fill="currentColor" fill-rule="evenodd" d="M10.94 1.853a1.5 1.5 0 0 1 2.12 0l9.086 9.086a1.5 1.5 0 0 1 0 2.121l-9.086 9.086a1.5 1.5 0 0 1-2.12 0L1.852 13.06a1.5 1.5 0 0 1 0-2.12l9.086-9.087Zm1.414.707a.5.5 0 0 0-.707 0L2.56 11.646a.5.5 0 0 0 0 .707l9.085 9.086a.5.5 0 0 0 .707 0l9.086-9.086a.5.5 0 0 0 0-.707L12.354 2.56Zm.396 13.19a.75.75 0 1 1-1.5 0 .75.75 0 0 1 1.5 0ZM11.5 8v5a.5.5 0 1 0 1 0V8a.5.5 0 0 0-1 0Z" clip-rule="evenodd"/></symbol>
  <use href="#icon"/>
</svg>
