<svg xmlns="http://www.w3.org/2000/svg">
  <symbol id="icon" fill="none" viewBox="0 0 16 16"><path fill="currentColor" d="M8 12a.5.5 0 0 1 .5.5V14a.5.5 0 0 1-1 0v-1.5A.5.5 0 0 1 8 12Zm-3.889.596a.501.501 0 0 1-.708-.707l.708.707Zm6.717-1.768a.5.5 0 0 1 .629-.063l.078.063 1.062 1.06a.5.5 0 0 1-.708.708l-1.06-1.06-.064-.079a.5.5 0 0 1 .063-.629Zm-6.363 0a.5.5 0 0 1 .707.707l-1.06 1.06-.354-.353-.355-.353 1.062-1.06ZM8 5a3 3 0 1 1 0 6 3 3 0 0 1 0-6Zm0 1a2 2 0 1 0 0 4 2 2 0 0 0 0-4ZM3.5 7.5a.5.5 0 0 1 0 1H2a.5.5 0 0 1 0-1h1.5Zm10.5 0a.5.5 0 0 1 0 1h-1.5a.5.5 0 0 1 0-1H14Zm-2.111-4.097a.501.501 0 0 1 .708.708l-1.062 1.06a.5.5 0 0 1-.707-.706l1.06-1.062Zm-8.486 0a.5.5 0 0 1 .63-.063l.078.063 1.06 1.062.064.078a.5.5 0 0 1-.692.692l-.078-.063-1.062-1.06-.063-.08a.5.5 0 0 1 .063-.629ZM8 1.5a.5.5 0 0 1 .5.5v1.5a.5.5 0 0 1-1 0V2a.5.5 0 0 1 .5-.5Z"/></symbol>
  <symbol id="icon-large" fill="none" viewBox="0 0 24 24"><path fill="currentColor" fill-rule="evenodd" d="M11.5 20.5v2a.5.5 0 0 0 1 0v-2a.5.5 0 0 0-1 0Zm-6.646-.646 1.5-1.5a.5.5 0 1 0-.708-.707l-1.5 1.5a.5.5 0 1 0 .708.707Zm15-.707-1.5-1.5a.5.5 0 1 0-.707.707l1.5 1.5a.5.5 0 1 0 .707-.707ZM4 12a.5.5 0 0 0-.5-.5h-2a.5.5 0 0 0 0 1h2A.5.5 0 0 0 4 12Zm19 0a.5.5 0 0 0-.5-.5h-2a.5.5 0 0 0 0 1h2a.5.5 0 0 0 .5-.5ZM4.854 4.146a.5.5 0 1 0-.708.708l1.5 1.5a.5.5 0 1 0 .708-.708l-1.5-1.5Zm15 0a.5.5 0 0 0-.707 0l-1.5 1.5a.5.5 0 1 0 .707.708l1.5-1.5a.5.5 0 0 0 0-.708ZM11.5 1.5v2a.5.5 0 0 0 1 0v-2a.5.5 0 0 0-1 0ZM12 7a5 5 0 1 1 0 10 5 5 0 0 1 0-10Zm0 11a6 6 0 1 0 0-12 6 6 0 0 0 0 12Z" clip-rule="evenodd"/></symbol>
  <use href="#icon"/>
</svg>
