<svg xmlns="http://www.w3.org/2000/svg">
  <symbol id="icon" fill="none" viewBox="0 0 16 16"><path fill="currentColor" d="M7.5 3a.5.5 0 0 1 0 1h-4a.5.5 0 0 0-.5.5v8a.5.5 0 0 0 .5.5h8a.5.5 0 0 0 .5-.5v-4a.5.5 0 0 1 1 0v4a1.5 1.5 0 0 1-1.5 1.5h-8A1.5 1.5 0 0 1 2 12.5v-8A1.5 1.5 0 0 1 3.5 3h4Zm6-1a.5.5 0 0 1 .5.5v3a.5.5 0 0 1-1 0V3.707L8.354 8.354a.5.5 0 1 1-.708-.708L12.293 3H10.5a.5.5 0 0 1 0-1h3Z"/></symbol>
  <symbol id="icon-large" fill="none" viewBox="0 0 24 24"><path fill="currentColor" fill-rule="evenodd" d="M3 19.5v-15A1.5 1.5 0 0 1 4.5 3H12v1H4.5a.5.5 0 0 0-.5.5v15a.5.5 0 0 0 .5.5h15a.5.5 0 0 0 .5-.5V12h1v7.5a1.5 1.5 0 0 1-1.5 1.5h-15A1.5 1.5 0 0 1 3 19.5ZM20 4.707V9.5a.5.5 0 0 0 1 0v-6a.5.5 0 0 0-.5-.5h-6a.5.5 0 0 0 0 1h4.793l-8.146 8.146a.5.5 0 1 0 .707.707L20 4.707Z" clip-rule="evenodd"/></symbol>
  <use href="#icon"/>
</svg>
